<?xml version="1.0" encoding="utf-8"?>
<!-- Generator: Adobe Illustrator 24.0.0, SVG Export Plug-In . SVG Version: 6.00 Build 0)  -->
<svg version="1.1" id="Layer_1" xmlns="http://www.w3.org/2000/svg" xmlns:xlink="http://www.w3.org/1999/xlink" x="0px" y="0px"
	 viewBox="0 0 614.8 747.7" style="enable-background:new 0 0 614.8 747.7;" xml:space="preserve">
<style type="text/css">
	.st0{opacity:0.1;fill:#7E96BD;enable-background:new    ;}
	.st1{clip-path:url(#SVGID_2_);}
</style>
<title>Artboard 1</title>
<path class="st0" d="M186.9,138.9C125.8,144.5,69.7,176,34.4,226c-54.3,76.8-67.1,204.7,193.8,371.7c411.5,263.5,387.9,6,382.7-30.6
	c-0.5-3.6-0.9-7.2-1.3-10.7l-22.1-241.9C576.8,198.3,474,112.7,357.7,123.3L186.9,138.9z"/>
<g>
	<defs>
		<path id="SVGID_1_" d="M168.6,729.7L168.6,729.7c135.8,53,290.2-14.8,343.2-150.6l85-217.9C649.8,225.4,582,71,446.2,18l0,0
			C310.4-34.9,156,32.8,103,168.6L18,386.5C-34.9,522.3,32.8,676.7,168.6,729.7z"/>
	</defs>
	<clipPath id="SVGID_2_">
		<use xlink:href="#SVGID_1_"  style="overflow:visible;"/>
	</clipPath>
	<g class="st1">
		
			<image style="overflow:visible;enable-background:new    ;" width="640" height="779" xlink:href="F61854760489BF4.png"  transform="matrix(0.9585 0 0 0.9585 0 6.423828e-02)">
		</image>
	</g>
</g>
</svg>
