<?xml version="1.0" encoding="utf-8"?>
<!-- Generator: Adobe Illustrator 23.1.1, SVG Export Plug-In . SVG Version: 6.00 Build 0)  -->
<svg version="1.1" id="Layer_1" xmlns="http://www.w3.org/2000/svg" xmlns:xlink="http://www.w3.org/1999/xlink" x="0px" y="0px"
	 viewBox="0 0 614.8 747.7" style="enable-background:new 0 0 614.8 747.7;" xml:space="preserve">
<style type="text/css">
	.st0{opacity:0.1;fill:#377DFF;enable-background:new    ;}
</style>
<path class="st0" d="M428.5,138.9C489.6,144.5,545.6,176,581,226c54.3,76.8,67.1,204.7-193.8,371.7c-411.5,263.5-387.9,6-382.7-30.6
	c0.5-3.6,0.9-7.2,1.3-10.7l22.1-241.9c10.6-116.2,113.5-201.8,229.8-191.1L428.5,138.9z"/>
<g>
	<g>
		<g>
			<defs>
				<path id="SVGID_1_" d="M446.2,729.7L446.2,729.7C310.4,782.7,156,714.9,103,579.1L18,361.2C-34.9,225.4,32.8,71,168.6,18l0,0
					c135.8-53,290.2,14.8,343.2,150.6l85,217.9C649.8,522.3,582,676.7,446.2,729.7z"/>
			</defs>
			<clipPath id="SVGID_2_">
				<use xlink:href="#SVGID_1_"  style="overflow:visible;"/>
			</clipPath>
			<g style="clip-path:url(#SVGID_2_);">
				
					<image style="overflow:visible;" width="1000" height="778" xlink:href="src/how-it-works.jpg"  transform="matrix(0.9611 0 0 0.9611 -315.6257 -2.090375e-02)">
				</image>
			</g>
		</g>
	</g>
</g>
</svg>
