<svg height="496pt" viewBox="-36 0 496 496" width="496pt" xmlns="http://www.w3.org/2000/svg"><path d="m376 16h-32v-16h-64v16h-32v24c0 13.230469 10.769531 24 24 24h12.449219c4.238281 7.273438 11.207031 12.695312 19.550781 14.863281v11.367188l-91.007812 30.335937c1.910156-5.175781 3.007812-10.734375 3.007812-16.566406v-24c0-26.472656-21.527344-48-48-48s-48 21.527344-48 48v24c0 5.832031 1.097656 11.390625 3.007812 16.566406l-94.351562-31.445312c-2.230469-.746094-4.542969-1.121094-6.886719-1.121094-12 0-21.769531 9.769531-21.769531 21.769531v2.542969c0 7.503906 3.96875 14.609375 10.359375 18.535156l93.640625 57.625v259.527344h-32v48h256v-80h-40v-69.910156c0-8.25-2.496094-16.1875-7.230469-22.9375l-48.769531-69.671875v-65.007813l72-44.304687v15.832031h-16v16h48v-16h-16v-25.6875l5.640625-3.472656c6.390625-3.929688 10.359375-11.023438 10.359375-18.527344v-2.542969c0-9.992187-6.808594-18.34375-16-20.890625v-10.007812c8.34375-2.167969 15.304688-7.589844 19.550781-14.863282h12.449219c13.230469 0 24-10.769531 24-24zm-104 32c-4.40625 0-8-3.59375-8-8v-8h16v16zm-136 32c0-17.648438 14.351562-32 32-32s32 14.351562 32 32v24c0 17.648438-14.351562 32-32 32s-32-14.351562-32-32zm39.664062 141.023438-7.664062 7.664062-7.664062-7.664062 6.910156-69.0625c.25.007812.496094.039062.753906.039062s.503906-.03125.753906-.039062zm136.335938 258.976562h-224v-16h128v-32h96zm-88-64h-24v32h-32v-149.257812c0-2.367188 3.464844-3.558594 4.910156-1.6875l51.089844 65.6875zm96-303.6875c0 1.992188-1.046875 3.863281-2.742188 4.910156l-101.257812 62.304688v78.992187l51.664062 73.800781c2.832032 4.054688 4.335938 8.816407 4.335938 13.769532v69.910156h-32v-58.742188l-54.457031-70.019531c-3.574219-4.597656-8.96875-7.238281-14.800781-7.238281-10.335938 0-18.742188 8.40625-18.742188 18.742188v149.257812h-32v-268.472656l-101.257812-62.3125c-1.695313-1.039063-2.742188-2.917969-2.742188-4.902344v-2.542969c0-3.800781 3.992188-6.664062 7.59375-5.472656l116.871094 38.960937c3.375 2.375 7.0625 4.292969 11 5.742188l-7.792969 77.976562 24.328125 24.335938 24.335938-24.335938-7.792969-77.976562c3.929687-1.449219 7.625-3.375 11-5.742188l116.871093-38.960937c3.59375-1.207031 7.585938 1.671875 7.585938 5.472656zm8-64.3125c0 8.824219-7.175781 16-16 16s-16-7.175781-16-16v-32h32zm32-8c0 4.40625-3.59375 8-8 8h-8v-16h16zm0 0"/><path d="m392 96h16v16h-16zm0 0"/><path d="m376 112h16v16h-16zm0 0"/><path d="m392 128h16v16h-16zm0 0"/><path d="m408 112h16v16h-16zm0 0"/><path d="m32 200h16v16h-16zm0 0"/><path d="m16 216h16v16h-16zm0 0"/><path d="m32 232h16v16h-16zm0 0"/><path d="m48 216h16v16h-16zm0 0"/><path d="m64 8h16v16h-16zm0 0"/><path d="m48 24h16v16h-16zm0 0"/><path d="m64 40h16v16h-16zm0 0"/><path d="m80 24h16v16h-16zm0 0"/></svg>